<svg width="258" height="24" viewBox="0 0 258 24" fill="none" xmlns="http://www.w3.org/2000/svg">
<path d="M170.032 13.665V18H165.85V6.1H177.597V9.024H170.032V10.741H177.121V13.665H170.032ZM166.088 6.338V17.762H169.794V13.427H176.883V10.979H169.794V8.786H177.359V6.338H166.088ZM182.637 14.09V18H178.761V8.871H182.637V9.976C183.045 9.466 183.963 8.633 185.748 8.633C186.292 8.633 186.734 8.684 187.074 8.786L187.159 8.803V12.084H186.7C186.292 11.931 185.697 11.693 184.898 11.693C183.351 11.693 182.637 12.458 182.637 14.09ZM178.999 9.109V17.762H182.399V14.09C182.399 12.339 183.249 11.455 184.898 11.455C185.714 11.455 186.343 11.693 186.768 11.846H186.921V8.99C186.615 8.905 186.224 8.871 185.748 8.871C184.065 8.871 183.011 9.704 182.62 10.418L182.399 10.809V9.109H178.999ZM193.552 18.238C190.815 18.238 187.636 16.98 187.636 13.427C187.636 9.891 190.815 8.633 193.552 8.633C196.289 8.633 199.468 9.891 199.468 13.427C199.468 16.98 196.289 18.238 193.552 18.238ZM193.552 8.871C190.934 8.871 187.874 10.061 187.874 13.427C187.874 16.793 190.934 18 193.552 18C196.17 18 199.23 16.793 199.23 13.427C199.23 10.061 196.17 8.871 193.552 8.871ZM193.552 15.858C192.022 15.858 191.104 14.957 191.104 13.427C191.104 11.914 192.022 10.996 193.552 10.996C195.082 10.996 196 11.914 196 13.427C196 14.957 195.082 15.858 193.552 15.858ZM193.552 11.234C191.563 11.234 191.342 12.781 191.342 13.427C191.342 14.09 191.563 15.62 193.552 15.62C195.541 15.62 195.762 14.09 195.762 13.427C195.762 12.781 195.541 11.234 193.552 11.234ZM211.356 12.152V18H207.48V12.985C207.48 11.897 206.987 11.353 205.95 11.353C204.896 11.353 204.369 11.914 204.369 12.985V18H200.493V8.871H204.369V9.806C204.777 9.398 205.763 8.633 207.361 8.633C209.928 8.633 211.356 9.874 211.356 12.152ZM207.718 12.985V17.762H211.118V12.152C211.118 10.01 209.826 8.871 207.361 8.871C205.423 8.871 204.454 10.061 204.335 10.197L204.131 10.469V9.109H200.731V17.762H204.131V12.985C204.131 11.778 204.777 11.115 205.95 11.115C207.123 11.115 207.718 11.744 207.718 12.985ZM217.889 18.136C214.659 18.136 213.622 17.218 213.622 14.328V11.166H211.973V8.871H213.622V6.559H217.498V8.871H220.099V11.166H217.498V14.328C217.498 14.702 217.583 14.957 217.753 15.11C218.093 15.433 218.824 15.399 219.963 15.297L220.099 15.28V18H219.997C219.351 18.085 218.552 18.136 217.889 18.136ZM212.211 9.109V10.928H213.86V14.328C213.86 16.742 214.472 17.898 217.889 17.898C218.518 17.898 219.249 17.864 219.861 17.779V15.535C218.722 15.637 217.991 15.654 217.583 15.297C217.362 15.093 217.26 14.787 217.26 14.328V10.928H219.861V9.109H217.26V6.797H213.86V9.109H212.211ZM226.604 18.238C223.782 18.238 220.756 16.98 220.756 13.427C220.756 9.891 223.731 8.633 226.519 8.633C228.27 8.633 229.834 9.245 230.837 10.299C231.789 11.302 232.214 12.696 232.078 14.362H224.445C224.717 15.314 225.431 15.79 226.604 15.79C227.437 15.79 228.066 15.467 228.508 14.804L228.542 14.736H231.993L231.959 14.889C231.449 17.048 229.545 18.238 226.604 18.238ZM226.519 8.871C223.85 8.871 220.994 10.061 220.994 13.427C220.994 17.66 225.278 18 226.604 18C228.559 18 231.024 17.473 231.687 14.974H228.661C228.185 15.671 227.488 16.028 226.604 16.028C224.921 16.028 224.36 15.076 224.173 14.277L224.139 14.124H231.857C231.925 12.611 231.517 11.37 230.667 10.469C229.307 9.024 227.318 8.871 226.519 8.871ZM228.695 12.373L228.729 12.526H224.19L224.241 12.356C224.462 11.676 225.04 10.843 226.519 10.843C227.658 10.843 228.406 11.37 228.695 12.373ZM224.53 12.288H228.406C228.134 11.489 227.488 11.081 226.519 11.081C225.516 11.081 224.836 11.489 224.53 12.288ZM243.962 12.152V18H240.086V12.985C240.086 11.897 239.593 11.353 238.556 11.353C237.502 11.353 236.975 11.914 236.975 12.985V18H233.099V8.871H236.975V9.806C237.383 9.398 238.369 8.633 239.967 8.633C242.534 8.633 243.962 9.874 243.962 12.152ZM240.324 12.985V17.762H243.724V12.152C243.724 10.01 242.432 8.871 239.967 8.871C238.029 8.871 237.06 10.061 236.941 10.197L236.737 10.469V9.109H233.337V17.762H236.737V12.985C236.737 11.778 237.383 11.115 238.556 11.115C239.729 11.115 240.324 11.744 240.324 12.985ZM244.944 13.427C244.944 10.52 246.899 8.633 249.925 8.633C251.064 8.633 252.067 9.024 252.815 9.755V6.1H256.691V18H252.815V17.099C252.067 17.83 251.064 18.238 249.925 18.238C246.899 18.238 244.944 16.351 244.944 13.427ZM253.053 16.487V17.762H256.453V6.338H253.053V10.367L252.849 10.129C252.135 9.313 251.098 8.871 249.925 8.871C247.052 8.871 245.182 10.656 245.182 13.427C245.182 16.198 247.052 18 249.925 18C251.098 18 252.135 17.541 252.849 16.725L253.053 16.487ZM248.429 13.427C248.429 12.305 249.058 10.996 250.877 10.996C252.458 10.996 253.376 11.88 253.376 13.427C253.376 14.974 252.458 15.858 250.877 15.858C249.058 15.858 248.429 14.549 248.429 13.427ZM248.667 13.427C248.667 14.447 249.245 15.62 250.877 15.62C252.849 15.62 253.138 14.26 253.138 13.427C253.138 12.611 252.849 11.234 250.877 11.234C249.245 11.234 248.667 12.424 248.667 13.427Z" fill="white"/>
<path d="M17.42 12.465C17.42 11.355 17.735 10.355 18.365 9.465C19.005 8.575 19.87 7.88 20.96 7.38C22.06 6.87 23.28 6.615 24.62 6.615C25.78 6.615 26.835 6.805 27.785 7.185C28.745 7.555 29.54 8.09 30.17 8.79C30.81 9.48 31.255 10.295 31.505 11.235L28.265 11.25C28.095 10.79 27.81 10.395 27.41 10.065C27.01 9.735 26.56 9.485 26.06 9.315C25.56 9.145 25.085 9.06 24.635 9.06C23.985 9.06 23.35 9.195 22.73 9.465C22.12 9.735 21.62 10.13 21.23 10.65C20.84 11.16 20.645 11.765 20.645 12.465C20.645 13.175 20.83 13.785 21.2 14.295C21.57 14.795 22.06 15.18 22.67 15.45C23.28 15.71 23.935 15.84 24.635 15.84C25.375 15.84 26.075 15.655 26.735 15.285C27.405 14.915 27.905 14.39 28.235 13.71H31.505C31.235 14.66 30.78 15.48 30.14 16.17C29.5 16.85 28.71 17.375 27.77 17.745C26.83 18.115 25.78 18.3 24.62 18.3C23.29 18.3 22.075 18.045 20.975 17.535C19.875 17.025 19.005 16.325 18.365 15.435C17.735 14.545 17.42 13.555 17.42 12.465ZM37.9268 9.48C38.9768 9.48 39.9218 9.67 40.7618 10.05C41.6018 10.43 42.2568 10.96 42.7268 11.64C43.2068 12.31 43.4468 13.065 43.4468 13.905C43.4468 14.735 43.2068 15.49 42.7268 16.17C42.2568 16.84 41.6018 17.365 40.7618 17.745C39.9218 18.125 38.9768 18.315 37.9268 18.315C36.9168 18.315 35.9718 18.125 35.0918 17.745C34.2118 17.355 33.5068 16.825 32.9768 16.155C32.4568 15.475 32.1968 14.725 32.1968 13.905C32.1968 13.075 32.4568 12.325 32.9768 11.655C33.5068 10.975 34.2118 10.445 35.0918 10.065C35.9718 9.675 36.9168 9.48 37.9268 9.48ZM37.9268 16.425C38.6468 16.425 39.2618 16.21 39.7718 15.78C40.2818 15.35 40.5368 14.725 40.5368 13.905C40.5368 13.075 40.2818 12.445 39.7718 12.015C39.2618 11.585 38.6468 11.37 37.9268 11.37C37.4668 11.37 37.0218 11.465 36.5918 11.655C36.1718 11.835 35.8268 12.115 35.5568 12.495C35.2868 12.875 35.1518 13.345 35.1518 13.905C35.1518 14.455 35.2868 14.92 35.5568 15.3C35.8268 15.68 36.1718 15.965 36.5918 16.155C37.0218 16.335 37.4668 16.425 37.9268 16.425ZM47.0641 15.12C47.0541 15.2 47.0491 15.305 47.0491 15.435L47.0641 15.12ZM53.4691 13.725C54.1191 13.855 54.6041 14.075 54.9241 14.385C55.2541 14.685 55.4191 15.12 55.4191 15.69V15.72C55.4191 16.52 55.0691 17.1 54.3691 17.46C53.6691 17.82 52.5841 18.005 51.1141 18.015H51.0841H50.6941H44.1991V9.825H51.4741H51.5791C52.5891 9.825 53.3641 9.995 53.9041 10.335C54.4541 10.675 54.7291 11.17 54.7291 11.82V11.88C54.7291 12.36 54.6241 12.75 54.4141 13.05C54.2141 13.35 53.8991 13.575 53.4691 13.725ZM51.8941 12.24C51.8941 11.98 51.8241 11.795 51.6841 11.685C51.5441 11.565 51.3641 11.495 51.1441 11.475C50.9241 11.445 50.6091 11.43 50.1991 11.43H47.0641V13.095C47.7041 13.095 48.1491 13.1 48.3991 13.11C49.5391 13.11 50.1091 13.115 50.1091 13.125H49.7041H50.1991C50.6191 13.125 50.9341 13.115 51.1441 13.095C51.3541 13.065 51.5291 12.99 51.6691 12.87C51.8191 12.74 51.8941 12.53 51.8941 12.24ZM50.5141 16.275C50.9941 16.275 51.3641 16.26 51.6241 16.23C51.8841 16.2 52.0941 16.125 52.2541 16.005C52.4241 15.875 52.5091 15.67 52.5091 15.39C52.5091 15.12 52.4241 14.925 52.2541 14.805C52.0941 14.675 51.8841 14.595 51.6241 14.565C51.3641 14.535 50.9941 14.52 50.5141 14.52H50.4841H47.0641V16.275H50.5141ZM66.9669 14.1C66.9469 14.81 66.7719 15.485 66.4419 16.125C66.1119 16.765 65.6469 17.285 65.0469 17.685C64.4469 18.075 63.7619 18.27 62.9919 18.27C61.2719 18.27 59.9719 17.865 59.0919 17.055V20.85H56.1669V9.825H58.7919L59.0019 10.92C59.8819 10.04 61.2119 9.615 62.9919 9.645C63.7619 9.645 64.4419 9.835 65.0319 10.215C65.6319 10.595 66.1019 11.115 66.4419 11.775C66.7819 12.435 66.9569 13.175 66.9669 13.995V14.04V14.1ZM61.4769 16.47C62.0069 16.47 62.4569 16.35 62.8269 16.11C63.2069 15.87 63.4919 15.565 63.6819 15.195C63.8819 14.815 63.9869 14.425 63.9969 14.025C63.9769 13.285 63.7569 12.665 63.3369 12.165C62.9169 11.665 62.2969 11.415 61.4769 11.415C61.0169 11.415 60.6019 11.53 60.2319 11.76C59.8719 11.99 59.5919 12.295 59.3919 12.675C59.1919 13.055 59.0919 13.46 59.0919 13.89V13.92C59.0919 14.67 59.3119 15.285 59.7519 15.765C60.1919 16.235 60.7669 16.47 61.4769 16.47ZM78.7174 14.175H70.5574C70.6174 14.875 70.8774 15.455 71.3374 15.915C71.8074 16.365 72.4524 16.59 73.2724 16.59C73.7124 16.59 74.1224 16.515 74.5024 16.365C74.8924 16.215 75.2024 16 75.4324 15.72C75.6724 15.44 75.7924 15.12 75.7924 14.76H78.7174C78.7174 15.45 78.4974 16.065 78.0574 16.605C77.6274 17.135 77.0024 17.55 76.1824 17.85C75.3624 18.15 74.3874 18.3 73.2574 18.3C72.2174 18.3 71.2624 18.115 70.3924 17.745C69.5224 17.375 68.8374 16.855 68.3374 16.185C67.8374 15.505 67.5874 14.73 67.5874 13.86C67.5874 12.98 67.8374 12.205 68.3374 11.535C68.8374 10.855 69.5174 10.335 70.3774 9.975C71.2374 9.605 72.1974 9.42 73.2574 9.42C74.3374 9.42 75.2874 9.6 76.1074 9.96C76.9274 10.32 77.5624 10.83 78.0124 11.49C78.4724 12.14 78.7074 12.905 78.7174 13.785V13.86H78.7324H78.7174V14.175ZM73.2724 11.085C71.9124 11.085 71.0574 11.67 70.7074 12.84H75.6874C75.4174 11.67 74.6124 11.085 73.2724 11.085ZM94.4718 9.825V18H91.5468V13.035L88.4418 18H85.6668L82.4268 13.11V18H79.5018V9.825H83.0268L87.0618 15.9L91.0818 9.825H94.4718ZM106.359 14.175H98.199C98.259 14.875 98.519 15.455 98.979 15.915C99.449 16.365 100.094 16.59 100.914 16.59C101.354 16.59 101.764 16.515 102.144 16.365C102.534 16.215 102.844 16 103.074 15.72C103.314 15.44 103.434 15.12 103.434 14.76H106.359C106.359 15.45 106.139 16.065 105.699 16.605C105.269 17.135 104.644 17.55 103.824 17.85C103.004 18.15 102.029 18.3 100.899 18.3C99.859 18.3 98.904 18.115 98.034 17.745C97.164 17.375 96.479 16.855 95.979 16.185C95.479 15.505 95.229 14.73 95.229 13.86C95.229 12.98 95.479 12.205 95.979 11.535C96.479 10.855 97.159 10.335 98.019 9.975C98.879 9.605 99.839 9.42 100.899 9.42C101.979 9.42 102.929 9.6 103.749 9.96C104.569 10.32 105.204 10.83 105.654 11.49C106.114 12.14 106.349 12.905 106.359 13.785V13.86H106.374H106.359V14.175ZM100.914 11.085C99.554 11.085 98.699 11.67 98.349 12.84H103.329C103.059 11.67 102.254 11.085 100.914 11.085ZM114.883 12.9V9.825H117.793V18H114.883V14.835H109.963V18H107.143V9.825H109.963V12.9H114.883ZM126.514 12.9V9.825H129.424V18H126.514V14.835H121.594V18H118.774V9.825H121.594V12.9H126.514ZM136.645 11.955C138.125 11.955 139.21 12.21 139.9 12.72C140.6 13.23 140.95 13.985 140.95 14.985V15.03C140.95 15.98 140.67 16.715 140.11 17.235C139.56 17.745 138.615 18 137.275 18C136.995 18 136.79 17.995 136.66 17.985V18H130.45L130.405 9.825H133.33L133.345 11.955H136.615H136.645ZM141.55 18V9.825H144.475V18H141.55ZM136.42 16.215C136.8 16.215 137.115 16.195 137.365 16.155C137.625 16.115 137.85 16 138.04 15.81C138.23 15.62 138.325 15.325 138.325 14.925C138.325 14.515 138.23 14.22 138.04 14.04C137.85 13.86 137.64 13.755 137.41 13.725C137.18 13.695 136.85 13.68 136.42 13.68H136.39H133.345L133.36 16.215H136.42ZM150.864 9.66C149.834 9.66 148.999 9.43 148.359 8.97C147.719 8.51 147.399 7.82 147.399 6.9H149.289C149.289 7.3 149.424 7.635 149.694 7.905C149.974 8.165 150.349 8.295 150.819 8.295C151.299 8.295 151.679 8.165 151.959 7.905C152.249 7.635 152.394 7.3 152.394 6.9H154.284C154.284 7.82 153.964 8.51 153.324 8.97C152.684 9.43 151.864 9.66 150.864 9.66ZM148.299 15.03L153.309 9.825H156.234V18H153.309V12.795L148.299 18H145.449V9.825H148.299V15.03Z" fill="white" fill-opacity="0.63"/>
<circle cx="5.5" cy="13.5" r="5.5" fill="white" fill-opacity="0.63"/>
</svg>
