<svg width="20" height="20" viewBox="0 0 20 20" fill="none" xmlns="http://www.w3.org/2000/svg">
<g clip-path="url(#clip0_269_8)">
<path d="M10.035 19.7067C3.52417 19.7067 0 15.6433 0 10.3975C0 4.79167 3.96833 0.293335 11.0633 0.293335C16.2417 0.293335 20 3.65833 20 8.29417C20 15.5542 11.3917 17.4708 11.8233 13.3292C11.2317 14.2525 10.2783 15.2908 8.44583 15.2908C6.34917 15.2908 5.04583 13.7558 5.04583 11.285C5.04583 7.58167 7.48 4.4525 10.3617 4.4525C11.7442 4.4525 12.695 5.1825 13.0925 6.30333L13.4792 4.94333H15.4275C15.2242 5.63667 13.4933 12.0492 13.4933 12.0492C12.9533 14.2708 14.6183 14.31 16.095 13.13C18.8692 10.98 19.0125 5.3575 15.2633 3.0125C11.2458 0.603335 2.10083 2.09417 2.10083 10.2567C2.10083 14.9325 5.3925 18.0742 10.2917 18.0742C13.155 18.0742 14.91 17.2992 16.3708 16.4508L17.3517 17.8658C15.9258 18.6708 13.6342 19.7067 10.035 19.7067ZM8.08167 7.78583C7.48583 8.9025 7.10083 10.3492 7.10083 11.4725C7.10083 14.4808 10.0358 14.5 11.4775 11.6717C12.0708 10.51 12.4533 9.02917 12.4533 7.8975C12.4533 5.46667 9.54083 5.03584 8.08167 7.78583Z" fill="white"/>
</g>
<defs>
<clipPath id="clip0_269_8">
<rect width="20" height="20" fill="white"/>
</clipPath>
</defs>
</svg>
