<svg width="800" height="800" viewBox="0 0 800 800" fill="none" xmlns="http://www.w3.org/2000/svg">
<path d="M431.623 394.036C421.67 397.359 411.053 399.205 400 399.205C388.947 399.205 378.328 397.359 368.375 394.036C296.075 405.909 258.236 459.048 258.236 523.531H400H541.763C541.763 459.048 503.93 405.909 431.623 394.036Z" fill="#4340CE"/>
<path d="M400 376.231C442.859 376.231 477.591 341.481 477.591 298.628V276.617C477.591 233.764 442.859 199.025 400 199.025C357.141 199.025 322.409 233.764 322.409 276.617V298.628C322.409 341.481 357.141 376.231 400 376.231Z" fill="#4340CE"/>
<path d="M591.25 0H208.722C134.741 0 74.5312 60.2219 74.5312 134.217V665.811C74.5312 739.806 134.741 800 208.722 800H530.12H550.706L565.266 785.467L710.936 639.797L725.469 625.25V604.666V134.217C725.469 60.2219 665.259 0 591.25 0ZM675.777 604.664H600.547C561.669 604.664 530.119 636.2 530.119 675.091V750.308H208.722C162.056 750.308 124.225 712.462 124.225 665.811V134.217C124.225 87.5391 162.056 49.6922 208.722 49.6922H591.25C637.931 49.6922 675.775 87.5391 675.775 134.217V604.664H675.777Z" fill="#4340CE"/>
</svg>
