<svg width="76" height="11" viewBox="0 0 76 11" fill="none" xmlns="http://www.w3.org/2000/svg">
<path d="M4.52176 6.08994V9.99994H0.645756V0.870939H4.52176V1.97594C4.92976 1.46594 5.84776 0.632939 7.63276 0.632939C8.17676 0.632939 8.61876 0.683938 8.95876 0.785938L9.04376 0.802939V4.08394H8.58476C8.17676 3.93094 7.58176 3.69294 6.78276 3.69294C5.23576 3.69294 4.52176 4.45794 4.52176 6.08994ZM0.883756 1.10894V9.76194H4.28376V6.08994C4.28376 4.33894 5.13376 3.45494 6.78276 3.45494C7.59876 3.45494 8.22776 3.69294 8.65276 3.84594H8.80576V0.989938C8.49976 0.904939 8.10876 0.870939 7.63276 0.870939C5.94976 0.870939 4.89576 1.70394 4.50476 2.41794L4.28376 2.80894V1.10894H0.883756ZM15.3684 10.2379C12.5464 10.2379 9.52042 8.97994 9.52042 5.42694C9.52042 1.89094 12.4954 0.632939 15.2834 0.632939C17.0344 0.632939 18.5984 1.24494 19.6014 2.29894C20.5534 3.30194 20.9784 4.69594 20.8424 6.36194H13.2094C13.4814 7.31394 14.1954 7.78994 15.3684 7.78994C16.2014 7.78994 16.8304 7.46694 17.2724 6.80394L17.3064 6.73594H20.7574L20.7234 6.88894C20.2134 9.04794 18.3094 10.2379 15.3684 10.2379ZM15.2834 0.870939C12.6144 0.870939 9.75842 2.06094 9.75842 5.42694C9.75842 9.65994 14.0424 9.99994 15.3684 9.99994C17.3234 9.99994 19.7884 9.47294 20.4514 6.97394H17.4254C16.9494 7.67094 16.2524 8.02794 15.3684 8.02794C13.6854 8.02794 13.1244 7.07594 12.9374 6.27694L12.9034 6.12394H20.6214C20.6894 4.61094 20.2814 3.36994 19.4314 2.46894C18.0714 1.02394 16.0824 0.870939 15.2834 0.870939ZM17.4594 4.37294L17.4934 4.52594H12.9544L13.0054 4.35594C13.2264 3.67594 13.8044 2.84294 15.2834 2.84294C16.4224 2.84294 17.1704 3.36994 17.4594 4.37294ZM13.2944 4.28794H17.1704C16.8984 3.48894 16.2524 3.08094 15.2834 3.08094C14.2804 3.08094 13.6004 3.48894 13.2944 4.28794ZM26.9499 10.2379C23.0909 10.2379 21.2039 9.16694 21.2039 6.99094V6.87194H25.2499V6.99094C25.2499 7.68794 25.7939 7.95994 27.1369 7.95994C28.4969 7.95994 28.6839 7.65394 28.6839 7.38194C28.6839 6.92294 28.0379 6.82094 26.4399 6.59994C26.1679 6.56594 25.8619 6.53194 25.5389 6.48094C23.2099 6.14094 21.5779 5.74994 21.5779 3.70994C21.5779 2.29894 22.4789 0.632939 26.7969 0.632939C31.2679 0.632939 32.2029 2.29894 32.2029 3.69294V3.81194H28.3609V3.69294C28.3609 3.16594 27.8169 2.89394 26.7629 2.89394C25.4369 2.89394 25.2499 3.14894 25.2499 3.42094C25.2499 3.79494 25.8449 3.87994 27.0689 4.01594L27.7489 4.10094C30.3839 4.42394 32.6619 4.69594 32.6619 7.07594C32.6619 9.89794 29.4149 10.2379 26.9499 10.2379ZM25.0119 7.10994H21.4419C21.5099 9.04794 23.3119 9.99994 26.9499 9.99994C30.7409 9.99994 32.4239 9.09894 32.4239 7.07594C32.4239 4.89994 30.3499 4.64494 27.7149 4.33894C27.3749 4.28794 27.2049 4.27094 27.0349 4.25394C25.7769 4.11794 25.0119 4.01594 25.0119 3.42094C25.0119 2.79194 25.7089 2.65594 26.7629 2.65594C28.1569 2.65594 28.5309 3.13194 28.5819 3.57394H31.9649C31.8799 1.80594 30.1119 0.870939 26.7969 0.870939C23.4819 0.870939 21.8159 1.82294 21.8159 3.70994C21.8159 5.42694 22.9719 5.86894 25.5729 6.24294C25.8959 6.29394 26.2019 6.32794 26.4739 6.37894C28.1059 6.59994 28.9219 6.70194 28.9219 7.38194C28.9219 8.11294 27.9529 8.19794 27.1369 8.19794C26.1169 8.19794 25.0969 8.06194 25.0119 7.10994ZM37.6617 10.2379C35.0947 10.2379 33.6667 8.97994 33.6667 6.71894V0.870939H37.5427V5.88594C37.5427 6.97394 38.0357 7.50094 39.0727 7.50094C40.1267 7.50094 40.6537 6.95694 40.6537 5.88594V0.870939H44.5297V9.99994H40.6537V9.04794C40.2457 9.45594 39.2597 10.2379 37.6617 10.2379ZM37.3047 1.10894H33.9047V6.71894C33.9047 8.86094 35.2137 9.99994 37.6617 9.99994C39.5997 9.99994 40.5687 8.80994 40.6877 8.67394L40.8917 8.40194V9.76194H44.2917V1.10894H40.8917V5.88594C40.8917 7.07594 40.2457 7.73894 39.0727 7.73894C37.8997 7.73894 37.3047 7.10994 37.3047 5.88594V1.10894ZM62.4948 4.15194V9.99994H58.6188V4.98494C58.6188 4.03294 58.5338 3.35294 57.4118 3.35294C56.3408 3.35294 56.1368 3.93094 56.1368 4.98494V9.99994H52.2608V4.98494C52.2608 4.03294 52.1758 3.35294 51.0538 3.35294C49.9828 3.35294 49.7788 3.93094 49.7788 4.98494V9.99994H45.9198V0.870939H49.7788V1.72094C50.1698 1.27894 50.9858 0.632939 52.4648 0.632939C53.9608 0.632939 54.9638 1.04094 55.5588 1.87394C56.0008 1.43194 57.0208 0.632939 58.6528 0.632939C61.2028 0.632939 62.4948 1.82294 62.4948 4.15194ZM58.8568 4.98494V9.76194H62.2568V4.15194C62.2568 1.97594 61.0498 0.870939 58.6528 0.870939C56.9528 0.870939 55.9668 1.77194 55.6268 2.14594L55.5248 2.26494L55.4398 2.12894C54.9128 1.27894 53.9438 0.870939 52.4648 0.870939C50.7138 0.870939 49.9658 1.83994 49.7618 2.12894L49.5408 2.46894V1.10894H46.1578V9.76194H49.5408V4.98494C49.5408 4.08394 49.6598 3.11494 51.0538 3.11494C52.3968 3.11494 52.4988 3.99894 52.4988 4.98494V9.76194H55.8988V4.98494C55.8988 4.08394 56.0178 3.11494 57.4118 3.11494C58.7378 3.11494 58.8568 3.99894 58.8568 4.98494ZM69.4065 10.2379C66.5845 10.2379 63.5585 8.97994 63.5585 5.42694C63.5585 1.89094 66.5335 0.632939 69.3215 0.632939C71.0725 0.632939 72.6365 1.24494 73.6395 2.29894C74.5915 3.30194 75.0165 4.69594 74.8805 6.36194H67.2475C67.5195 7.31394 68.2335 7.78994 69.4065 7.78994C70.2395 7.78994 70.8685 7.46694 71.3105 6.80394L71.3445 6.73594H74.7955L74.7615 6.88894C74.2515 9.04794 72.3475 10.2379 69.4065 10.2379ZM69.3215 0.870939C66.6525 0.870939 63.7965 2.06094 63.7965 5.42694C63.7965 9.65994 68.0805 9.99994 69.4065 9.99994C71.3615 9.99994 73.8265 9.47294 74.4895 6.97394H71.4635C70.9875 7.67094 70.2905 8.02794 69.4065 8.02794C67.7235 8.02794 67.1625 7.07594 66.9755 6.27694L66.9415 6.12394H74.6595C74.7275 4.61094 74.3195 3.36994 73.4695 2.46894C72.1095 1.02394 70.1205 0.870939 69.3215 0.870939ZM71.4975 4.37294L71.5315 4.52594H66.9925L67.0435 4.35594C67.2645 3.67594 67.8425 2.84294 69.3215 2.84294C70.4605 2.84294 71.2085 3.36994 71.4975 4.37294ZM67.3325 4.28794H71.2085C70.9365 3.48894 70.2905 3.08094 69.3215 3.08094C68.3185 3.08094 67.6385 3.48894 67.3325 4.28794Z" fill="white"/>
</svg>
