<svg width="20" height="20" viewBox="0 0 20 20" fill="none" xmlns="http://www.w3.org/2000/svg">
<g clip-path="url(#clip0_269_6)">
<path fill-rule="evenodd" clip-rule="evenodd" d="M15.3201 18.9825C15.5884 19.1725 15.9343 19.22 16.2426 19.1033C16.5509 18.9858 16.7776 18.7225 16.8459 18.4033C17.5701 15 19.3268 6.38583 19.9859 3.29C20.0359 3.05667 19.9526 2.81417 19.7693 2.65833C19.5859 2.5025 19.3318 2.4575 19.1051 2.54167C15.6109 3.835 4.85009 7.8725 0.451754 9.5C0.172587 9.60333 -0.00907926 9.87167 8.74041e-05 10.1658C0.0100874 10.4608 0.208421 10.7167 0.494254 10.8025C2.46675 11.3925 5.05592 12.2133 5.05592 12.2133C5.05592 12.2133 6.26592 15.8675 6.89675 17.7258C6.97592 17.9592 7.15842 18.1425 7.39925 18.2058C7.63925 18.2683 7.89592 18.2025 8.07509 18.0333C9.08842 17.0767 10.6551 15.5975 10.6551 15.5975C10.6551 15.5975 13.6318 17.78 15.3201 18.9825ZM6.14509 11.7517L7.54425 16.3667L7.85509 13.4442C7.85509 13.4442 13.2609 8.56833 16.3426 5.78917C16.4326 5.7075 16.4451 5.57083 16.3701 5.475C16.2959 5.37917 16.1593 5.35667 16.0568 5.42167C12.4851 7.7025 6.14509 11.7517 6.14509 11.7517Z" fill="white"/>
</g>
<defs>
<clipPath id="clip0_269_6">
<rect width="20" height="20" fill="white"/>
</clipPath>
</defs>
</svg>
